<?xml version="1.0" standalone="no"?>
<!DOCTYPE svg PUBLIC "-//W3C//DTD SVG 20010904//EN"
 "http://www.w3.org/TR/2001/REC-SVG-20010904/DTD/svg10.dtd">
<svg version="1.0" xmlns="http://www.w3.org/2000/svg"
 width="2161.000000pt" height="2161.000000pt" viewBox="0 0 2161.000000 2161.000000"
 preserveAspectRatio="xMidYMid meet">

<g transform="translate(0.000000,2161.000000) scale(0.100000,-0.100000)"
fill="#000000" stroke="none">
<path d="M7725 15008 c-15 -46 -27 -118 -50 -303 -26 -202 -27 -223 -20 -530
8 -400 8 -415 18 -415 4 0 7 -12 7 -26 0 -21 -4 -25 -17 -19 -10 3 -45 13 -78
21 -33 9 -75 20 -92 25 -47 15 -135 27 -149 22 -9 -3 -6 -11 7 -24 11 -11 24
-17 29 -14 6 4 10 -9 10 -29 0 -22 -5 -36 -12 -36 -9 0 -14 -23 -16 -73 -1
-39 -7 -73 -12 -75 -6 -2 -10 -99 -10 -243 0 -206 -2 -239 -15 -239 -13 0 -15
-33 -15 -240 0 -207 -2 -240 -15 -240 -12 0 -15 20 -15 120 0 73 -4 120 -10
120 -6 0 -10 -60 -10 -160 0 -123 -3 -159 -12 -158 -10 2 -14 -20 -16 -79 -2
-65 -6 -83 -17 -83 -12 0 -15 -17 -15 -81 0 -54 -3 -78 -11 -74 -7 5 -9 -5 -7
-26 2 -24 10 -37 26 -44 36 -16 25 -28 -20 -21 -24 3 -49 2 -56 -3 -16 -10
-92 7 -92 20 0 5 -6 9 -14 9 -11 0 -126 49 -311 135 -51 23 -134 59 -170 74
-11 5 -46 20 -77 35 -31 14 -64 26 -72 26 -8 0 -18 5 -21 11 -10 15 -53 29
-70 23 -22 -9 -22 -164 0 -164 11 0 15 12 15 51 0 31 4 48 10 44 6 -4 10 -58
10 -131 0 -101 3 -124 14 -124 10 0 16 -14 18 -42 3 -40 1 -44 -27 -55 l-30
-11 29 -1 c33 -1 30 -11 -5 -15 -13 -2 -32 -6 -41 -10 -34 -12 -54 -18 -148
-46 -193 -57 -476 -173 -625 -255 -33 -18 -82 -45 -110 -60 -74 -40 -145 -86
-145 -94 0 -21 283 -328 426 -461 290 -271 709 -541 1076 -695 67 -27 67 -28
45 -44 -12 -9 -33 -22 -47 -28 -24 -10 -218 -151 -289 -210 -110 -90 -250
-222 -339 -318 -8 -9 -9 -16 -2 -20 18 -11 10 -27 -11 -22 -12 3 -18 3 -15 0
3 -4 1 -12 -6 -20 -6 -7 -8 -17 -4 -21 4 -4 12 1 17 11 6 9 17 17 24 17 8 0
15 5 15 10 0 6 5 10 11 10 5 0 7 -4 4 -10 -3 -5 -1 -18 4 -27 9 -16 10 -14 11
10 0 22 4 27 25 27 21 0 25 -5 25 -30 0 -28 2 -30 40 -30 22 0 40 -4 40 -10 0
-5 18 -10 40 -10 22 0 40 -4 40 -10 0 -5 -18 -10 -40 -10 -29 0 -40 -4 -40
-15 0 -10 11 -15 35 -15 33 0 35 -2 46 -45 11 -42 13 -45 45 -45 19 0 34 -4
34 -10 0 -5 18 -10 40 -10 l40 0 0 -40 0 -40 74 0 c41 0 78 -4 81 -10 4 -6
-10 -10 -34 -10 -30 0 -41 -4 -41 -15 0 -11 11 -15 40 -15 29 0 40 -4 40 -15
0 -11 11 -15 40 -15 22 0 40 -4 40 -9 0 -5 -13 -7 -29 -6 -39 3 -53 -7 -49
-36 3 -22 8 -24 78 -29 74 -5 75 -5 77 -34 2 -32 23 -62 23 -33 0 9 5 17 11
17 5 0 8 -4 4 -9 -10 -18 18 -24 31 -7 16 22 22 11 20 -36 -1 -24 3 -38 11
-38 6 0 18 -9 26 -20 19 -27 50 -17 41 14 -4 11 -11 24 -16 27 -5 3 -8 10 -7
15 5 22 -14 85 -25 81 -7 -3 -13 5 -14 16 -1 17 1 19 8 7 14 -23 12 2 -5 50
-20 56 -81 377 -97 510 -17 137 -17 600 0 745 59 497 205 943 444 1350 182
309 273 430 491 654 238 244 453 413 727 573 386 226 844 381 1310 445 158 21
623 24 780 5 724 -89 1324 -353 1884 -831 159 -135 310 -293 437 -455 55 -72
63 -82 160 -227 108 -161 233 -398 301 -568 17 -42 33 -79 37 -84 9 -9 177
139 302 266 122 123 284 315 283 334 -1 8 0 12 3 9 14 -13 88 88 77 105 -4 7
-3 9 4 5 6 -3 22 8 35 26 24 30 25 34 11 60 -15 29 -11 53 7 42 5 -3 7 -14 4
-24 -10 -31 11 -31 34 0 l21 30 -21 21 c-15 15 -24 18 -32 10 -18 -18 -27 -13
-27 17 0 16 -3 31 -6 35 -8 7 -54 -13 -54 -25 0 -4 -4 -8 -10 -8 -5 0 -10 11
-10 25 0 23 -4 25 -40 25 -29 0 -40 4 -40 15 0 10 -11 15 -35 15 -28 0 -35 4
-35 19 0 40 -11 51 -51 51 -32 0 -39 3 -39 20 0 17 -7 20 -40 20 -22 0 -40 5
-40 10 0 6 -18 10 -40 10 -29 0 -40 4 -40 15 0 10 -11 15 -35 15 -28 0 -35 4
-35 19 0 40 -11 51 -51 51 -32 0 -39 3 -39 20 0 17 -7 20 -40 20 -22 0 -40 5
-40 10 0 6 -18 10 -40 10 -29 0 -40 4 -40 15 0 12 -16 15 -80 15 -64 0 -80 3
-80 15 0 11 11 15 40 15 22 0 40 5 40 10 0 6 -18 10 -40 10 -29 0 -40 4 -40
15 0 10 -11 15 -35 15 -29 0 -36 4 -41 25 -6 24 -9 25 -85 25 -64 0 -79 3 -79
15 0 11 -11 15 -40 15 -29 0 -40 4 -40 15 0 11 11 15 40 15 22 0 40 5 40 10 0
6 -31 10 -73 10 -70 0 -74 1 -86 26 -8 18 -8 30 -1 39 5 6 7 15 3 19 -4 3 -6
26 -6 49 l1 42 -11 -37 c-7 -25 -16 -38 -28 -38 -34 0 -49 -12 -55 -46 -3 -19
-9 -33 -11 -30 -8 8 19 116 29 116 5 0 7 4 3 9 -3 5 0 21 7 35 11 25 12 25 30
10 11 -10 18 -12 18 -6 0 7 -4 12 -10 12 -23 0 -7 26 54 89 133 137 387 404
472 496 16 17 22 31 15 33 -6 2 -11 10 -11 18 0 8 -5 14 -12 14 -6 0 -8 3 -5
6 4 4 17 0 30 -9 23 -15 25 -15 36 9 6 14 11 27 11 29 0 11 -59 4 -64 -7 -5
-10 -7 -10 -12 0 -4 9 -54 12 -199 12 -193 0 -194 0 -199 -22 -3 -13 -2 13 1
57 22 321 18 624 -12 857 -16 122 -50 316 -56 323 -5 5 -224 -77 -339 -127
-446 -193 -836 -461 -1188 -815 -67 -68 -124 -123 -126 -123 -2 0 -7 19 -11
43 -17 114 -150 522 -200 617 -7 14 -28 56 -45 94 -18 39 -39 76 -46 84 -8 7
-12 17 -10 21 3 4 -3 7 -13 7 -13 0 -17 -6 -13 -20 4 -15 1 -18 -11 -13 -19 7
-22 -9 -8 -32 14 -21 -12 -41 -53 -41 -25 0 -36 -4 -36 -15 0 -11 -11 -15 -40
-15 -29 0 -40 -4 -40 -15 0 -11 11 -15 41 -15 24 0 38 -4 34 -10 -3 -5 -40
-10 -81 -10 l-74 0 0 -40 0 -40 -40 0 c-22 0 -40 -4 -40 -9 0 -6 -17 -11 -37
-13 -29 -2 -39 -8 -41 -23 -9 -62 -11 -65 -47 -65 -31 0 -35 -3 -35 -25 0 -22
-4 -25 -40 -25 -29 0 -40 -4 -40 -15 0 -11 -11 -15 -40 -15 -29 0 -40 -4 -40
-15 0 -11 11 -15 41 -15 24 0 38 -4 34 -10 -3 -5 -40 -10 -81 -10 l-74 0 0
-40 0 -40 -40 0 c-22 0 -40 -4 -40 -9 0 -6 -17 -11 -37 -13 -29 -2 -39 -8 -41
-23 -9 -62 -11 -65 -47 -65 -31 0 -35 -3 -35 -25 0 -22 -4 -25 -40 -25 -29 0
-40 -4 -40 -15 0 -11 -11 -15 -40 -15 -29 0 -40 -4 -40 -15 0 -11 11 -15 41
-15 24 0 38 -4 34 -10 -3 -5 -39 -10 -80 -10 -73 0 -74 0 -77 -27 -2 -16 -8
-27 -15 -26 -7 2 -10 -4 -7 -12 5 -11 -1 -15 -22 -15 -16 0 -35 4 -43 9 -9 6
-21 5 -32 -2 -14 -8 -15 -15 -7 -30 5 -10 7 -22 3 -25 -8 -8 -25 18 -25 41 0
9 -5 17 -11 17 -5 0 -7 -5 -3 -12 4 -7 3 -8 -4 -4 -6 4 -8 14 -5 23 4 11 3 14
-6 9 -13 -8 -41 10 -41 26 0 6 7 4 17 -3 14 -12 16 -12 11 1 -3 8 -15 14 -26
13 -21 -3 -52 39 -58 77 -1 8 -32 116 -69 240 -37 124 -69 237 -72 252 -5 27
-33 61 -33 40 0 -6 4 -12 8 -14 5 -1 5 -14 1 -28 l-7 -25 -1 28 c-1 15 -5 27
-11 27 -5 0 -10 12 -10 27 l0 27 -16 -23 c-13 -18 -14 -25 -4 -31 9 -6 3 -16
-21 -39 -28 -26 -32 -32 -19 -40 13 -9 13 -13 -3 -28 -15 -16 -19 -16 -28 -3
-8 13 -14 10 -38 -16 -16 -17 -35 -34 -42 -38 -8 -3 0 -4 17 -2 26 4 33 1 37
-15 5 -18 2 -20 -18 -15 -13 3 -31 9 -42 13 -16 6 -17 5 -3 -13 14 -19 14 -19
-8 0 -23 20 -30 32 -10 20 7 -5 8 -3 4 5 -5 7 -14 10 -20 8 -7 -3 -26 6 -42
19 -19 16 -22 22 -10 17 14 -5 17 -3 12 6 -5 7 -15 10 -23 7 -9 -4 -42 14 -82
42 -246 181 -585 359 -918 481 -128 47 -122 45 -128 29z m3135 -269 c0 -5 -4
-9 -10 -9 -5 0 -10 7 -10 16 0 8 5 12 10 9 6 -3 10 -10 10 -16z m-1733 -236
c-3 -10 -5 -4 -5 12 0 17 2 24 5 18 2 -7 2 -21 0 -30z m-137 -143 c0 -5 -5
-10 -11 -10 -5 0 -7 5 -4 10 3 6 8 10 11 10 2 0 4 -4 4 -10z m50 -10 c0 -5 -4
-10 -10 -10 -5 0 -10 5 -10 10 0 6 5 10 10 10 6 0 10 -4 10 -10z m480 -455 c0
-8 -7 -15 -15 -15 -8 0 -15 7 -15 15 0 8 7 15 15 15 8 0 15 -7 15 -15z m7 -54
c10 -15 9 -22 -1 -30 -9 -8 -12 -6 -12 11 1 11 -6 23 -14 26 -13 5 -13 3 0
-14 14 -18 14 -18 -2 -5 -10 7 -15 17 -12 22 9 15 29 10 41 -10z m3738 -81
c-3 -5 -19 -10 -36 -10 -16 0 -29 5 -29 10 0 6 16 10 36 10 21 0 33 -4 29 -10z
m-5875 -126 c0 -13 -4 -24 -9 -24 -4 0 -8 13 -7 29 1 35 16 30 16 -5z m5360
-673 c0 -6 -4 -13 -10 -16 -5 -3 -10 1 -10 9 0 9 5 16 10 16 6 0 10 -4 10 -9z
m25 -12 c-10 -15 -25 -10 -19 6 4 8 10 12 15 9 5 -3 7 -10 4 -15z m-108 -86
c-3 -10 -5 -4 -5 12 0 17 2 24 5 18 2 -7 2 -21 0 -30z m-6340 -475 c-3 -8 -6
-5 -6 6 -1 11 2 17 5 13 3 -3 4 -12 1 -19z m69 -28 c8 0 14 -4 14 -8 0 -5 -13
-7 -30 -4 -16 2 -30 9 -30 14 0 6 7 7 16 4 9 -3 22 -6 30 -6z m7834 -115 c0
-2 -7 -8 -15 -15 -12 -10 -15 -10 -15 2 0 8 7 15 15 15 8 0 15 -1 15 -2z m-50
-68 c0 -2 -12 -14 -27 -28 l-28 -24 24 28 c23 25 31 32 31 24z m-6813 -93 c-3
-3 -12 -4 -19 -1 -8 3 -5 6 6 6 11 1 17 -2 13 -5z m-932 -83 c17 -7 16 -9 -13
-16 -18 -4 -36 -4 -39 -1 -4 3 5 6 18 6 19 0 21 2 9 10 -18 11 -3 12 25 1z
m548 -2862 c-6 -6 -10 1 -10 23 0 30 1 30 10 10 7 -15 7 -26 0 -33z m23 -25
c-3 -8 -10 -14 -15 -14 -5 0 -4 13 2 31 8 21 13 26 15 14 2 -9 1 -23 -2 -31z
m24 -28 c0 -3 -4 -8 -10 -11 -5 -3 -10 -1 -10 4 0 6 5 11 10 11 6 0 10 -2 10
-4z"/>
<path d="M10742 14748 c6 -17 58 -18 58 -1 0 8 -12 13 -31 13 -19 0 -29 -4
-27 -12z"/>
<path d="M6680 14130 c0 -5 5 -10 11 -10 5 0 7 5 4 10 -3 6 -8 10 -11 10 -2 0
-4 -4 -4 -10z"/>
<path d="M7616 14087 c3 -10 9 -15 12 -12 3 3 0 11 -7 18 -10 9 -11 8 -5 -6z"/>
<path d="M6740 14046 c0 -9 7 -16 16 -16 9 0 14 5 12 12 -6 18 -28 21 -28 4z"/>
<path d="M6800 14000 c0 -31 -44 -70 -79 -70 -33 0 -61 -9 -61 -19 0 -4 13 -6
29 -3 16 2 60 -1 97 -8 86 -14 154 -21 154 -16 0 6 -128 136 -134 136 -3 0 -6
-9 -6 -20z"/>
<path d="M12913 13900 c0 -30 2 -43 4 -27 2 15 2 39 0 55 -2 15 -4 2 -4 -28z"/>
<path d="M7633 13875 c0 -33 2 -45 4 -27 2 18 2 45 0 60 -2 15 -4 0 -4 -33z"/>
<path d="M7273 13793 c9 -2 23 -2 30 0 6 3 -1 5 -18 5 -16 0 -22 -2 -12 -5z"/>
<path d="M7631 13784 c0 -11 3 -14 6 -6 3 7 2 16 -1 19 -3 4 -6 -2 -5 -13z"/>
<path d="M12741 13074 c0 -11 3 -14 6 -6 3 7 2 16 -1 19 -3 4 -6 -2 -5 -13z"/>
<path d="M12765 13060 c-3 -5 -1 -10 4 -10 6 0 11 5 11 10 0 6 -2 10 -4 10 -3
0 -8 -4 -11 -10z"/>
<path d="M6200 12456 c0 -2 11 -6 25 -8 13 -3 22 -1 19 3 -5 9 -44 13 -44 5z"/>
<path d="M6265 12430 c3 -5 14 -10 23 -10 15 0 15 2 2 10 -20 13 -33 13 -25 0z"/>
<path d="M6260 12400 c0 -5 5 -10 10 -10 6 0 10 5 10 10 0 6 -4 10 -10 10 -5
0 -10 -4 -10 -10z"/>
<path d="M14247 12392 c3 -7 9 -10 12 -5 3 4 10 11 15 15 4 4 -1 6 -12 5 -12
-1 -18 -6 -15 -15z"/>
<path d="M14279 12382 c-32 -33 -44 -68 -28 -77 8 -6 7 -10 -2 -16 -9 -5 -10
-9 -2 -9 6 0 20 16 32 36 26 44 28 59 2 21 -10 -16 -21 -25 -25 -19 -8 14 47
82 62 77 7 -3 10 0 7 5 -10 15 -18 12 -46 -18z"/>
<path d="M6268 11973 c7 -3 16 -2 19 1 4 3 -2 6 -13 5 -11 0 -14 -3 -6 -6z"/>
<path d="M11313 10552 c-29 -4 -71 -45 -79 -76 -23 -91 103 -154 177 -88 74
66 6 181 -98 164z"/>
<path d="M9030 10462 c0 -15 9 -21 36 -26 19 -4 44 -16 55 -27 18 -18 19 -35
19 -312 0 -223 -3 -297 -13 -311 -7 -9 -32 -20 -55 -23 -37 -5 -42 -9 -42 -31
l0 -25 263 6 c286 6 352 16 415 64 51 38 72 80 72 141 0 60 -15 94 -57 135
-29 27 -125 67 -163 67 -34 0 -22 15 23 27 176 48 213 227 62 303 -49 25 -54
25 -332 28 -275 3 -283 3 -283 -16z m450 -52 c38 -27 54 -70 48 -131 -7 -67
-52 -115 -118 -127 -82 -15 -80 -18 -80 138 0 123 2 139 18 144 32 9 103 -4
132 -24z m14 -338 c45 -26 67 -63 73 -124 7 -71 -22 -140 -71 -165 -42 -22
-106 -22 -139 0 l-27 17 0 144 c0 129 2 145 18 150 30 8 116 -4 146 -22z"/>
<path d="M14380 10462 c0 -13 12 -22 39 -31 22 -6 51 -25 65 -42 l26 -31 0
-269 0 -270 -24 -24 c-13 -13 -40 -27 -60 -30 -29 -6 -36 -12 -36 -31 l0 -24
160 0 c160 0 160 0 160 23 0 18 -10 26 -51 40 -77 28 -80 41 -77 306 l3 220
51 -62 c27 -34 106 -132 174 -217 68 -85 153 -190 189 -233 l65 -78 45 3 46 3
5 338 5 339 24 19 c13 11 35 22 50 25 46 10 51 13 45 29 -5 13 -31 15 -165 15
-145 0 -159 -2 -159 -18 0 -12 16 -23 51 -35 74 -27 79 -44 79 -274 l-1 -188
-27 34 c-15 19 -61 76 -102 126 -41 51 -122 151 -180 223 l-105 131 -147 1
c-137 0 -148 -1 -148 -18z"/>
<path d="M10799 10260 c-119 -20 -187 -107 -160 -206 17 -65 64 -101 181 -139
56 -19 109 -40 116 -46 21 -17 18 -83 -5 -103 -68 -61 -205 -2 -259 111 -9 20
-23 33 -34 33 -17 0 -18 -8 -16 -97 3 -85 5 -98 21 -101 10 -2 24 3 30 12 11
13 18 13 67 -4 63 -22 179 -26 231 -8 93 32 140 88 141 168 0 95 -46 138 -199
185 -95 29 -113 44 -113 90 0 42 29 65 83 65 62 0 102 -29 169 -122 26 -37 36
-12 31 79 -4 63 -9 83 -21 88 -10 3 -21 -1 -28 -10 -10 -14 -18 -14 -75 0 -69
16 -90 17 -160 5z"/>
<path d="M11995 10265 c-5 -2 -22 -6 -36 -9 -14 -3 -46 -21 -72 -41 -25 -19
-48 -35 -51 -35 -3 0 -6 19 -6 41 l0 42 -61 -7 c-34 -3 -93 -6 -130 -6 -65 0
-69 -1 -69 -23 0 -17 8 -25 32 -32 52 -16 58 -40 58 -232 0 -185 -5 -203 -55
-203 -23 0 -40 -24 -29 -41 3 -5 77 -9 165 -9 l159 0 0 25 c0 16 -6 25 -15 25
-8 0 -24 9 -35 20 -18 18 -20 33 -20 176 l0 156 31 29 c32 30 84 45 118 34 45
-14 51 -41 52 -216 0 -90 -2 -171 -6 -180 -3 -9 -19 -19 -36 -23 -31 -6 -39
-30 -13 -40 9 -3 83 -6 166 -6 148 0 149 0 146 22 -2 14 -13 24 -32 29 -16 5
-33 14 -37 21 -5 7 -9 90 -9 183 0 157 -2 174 -22 215 -13 25 -36 52 -53 61
-29 16 -119 32 -140 24z"/>
<path d="M12543 10252 c-132 -47 -201 -152 -191 -293 12 -162 126 -259 304
-259 87 0 162 30 219 86 50 51 53 59 26 73 -14 8 -22 7 -32 -6 -8 -9 -32 -29
-53 -45 -33 -23 -49 -28 -100 -28 -103 0 -156 53 -172 174 l-7 46 184 2 c210
3 201 -1 179 96 -23 102 -102 160 -233 168 -54 4 -85 0 -124 -14z m133 -40
c19 -13 32 -46 39 -104 l7 -58 -91 0 -92 0 7 48 c12 81 41 122 88 122 17 0 36
-4 42 -8z"/>
<path d="M13142 10254 c-94 -25 -142 -78 -142 -158 0 -55 25 -104 68 -135 15
-10 65 -30 110 -45 46 -14 92 -31 103 -36 53 -29 48 -103 -9 -127 -77 -32
-183 22 -233 118 -13 27 -26 39 -41 39 -20 0 -21 -3 -14 -77 3 -42 6 -87 6
-100 0 -27 34 -32 48 -7 8 15 14 15 66 -5 63 -23 165 -28 228 -11 140 39 192
191 97 282 -30 29 -61 44 -137 67 -105 33 -132 52 -132 94 0 61 81 88 153 51
39 -21 47 -29 81 -82 46 -73 61 -54 51 64 -7 85 -14 97 -44 70 -14 -13 -24
-13 -76 0 -74 17 -115 17 -183 -2z"/>
<path d="M13721 10259 c-53 -10 -110 -48 -134 -88 -21 -36 -22 -112 -2 -151
23 -45 72 -76 168 -105 110 -35 131 -51 130 -99 -1 -20 -6 -43 -13 -51 -16
-20 -82 -28 -126 -16 -43 11 -122 86 -142 134 -7 17 -19 27 -32 27 -17 0 -20
-6 -20 -47 0 -27 3 -72 6 -100 5 -42 11 -53 25 -53 10 0 22 7 26 15 8 13 16
12 68 -6 87 -30 212 -24 277 14 80 46 108 103 93 184 -12 64 -65 106 -181 142
-110 34 -134 51 -134 99 0 39 31 62 83 62 62 0 104 -31 168 -121 10 -15 20
-20 29 -14 10 6 11 27 7 87 -8 95 -12 104 -41 85 -18 -12 -31 -13 -86 -1 -73
15 -105 16 -169 3z"/>
<path d="M15511 10255 c-63 -18 -117 -49 -131 -75 -6 -10 -10 -32 -10 -49 0
-63 97 -95 154 -50 25 20 27 27 24 78 l-3 56 34 3 c76 8 101 -20 101 -109 0
-47 -2 -51 -32 -64 -18 -7 -62 -21 -97 -30 -82 -21 -153 -57 -180 -91 -46 -59
-36 -151 21 -194 29 -22 44 -25 115 -25 76 0 84 2 128 33 47 33 47 33 62 13
33 -48 114 -64 209 -40 37 10 44 15 44 35 0 21 -5 24 -39 24 -22 0 -43 6 -48
13 -4 6 -7 75 -5 152 1 77 0 162 -4 188 -7 56 -42 103 -92 124 -52 22 -187 26
-251 8z m144 -452 c-57 -50 -125 -17 -125 61 0 56 27 91 94 122 l51 24 3 -93
c3 -88 2 -93 -23 -114z"/>
<path d="M16379 10257 c-25 -7 -64 -28 -85 -45 l-39 -33 -5 38 -5 38 -115 -4
c-146 -5 -145 -4 -145 -26 0 -12 10 -21 28 -26 53 -14 56 -28 57 -230 0 -199
-1 -204 -50 -211 -17 -2 -26 -10 -28 -25 -3 -23 -3 -23 146 -23 83 0 157 3
166 6 25 10 19 33 -11 45 -15 6 -31 16 -35 22 -4 7 -8 85 -8 174 l0 161 31 26
c38 32 74 42 108 30 44 -16 51 -45 51 -225 0 -171 -4 -189 -42 -189 -13 0 -18
-8 -18 -25 l0 -25 150 0 c149 0 150 0 150 23 0 15 -9 26 -30 35 l-30 14 0 168
0 168 31 26 c38 32 74 42 108 30 45 -16 51 -44 48 -229 l-2 -170 -27 -13 c-16
-7 -28 -21 -28 -32 0 -18 10 -19 161 -19 157 0 160 0 157 21 -2 13 -15 24 -38
32 l-35 11 -5 190 c-4 156 -8 196 -23 222 -51 95 -201 106 -306 22 l-50 -39
-21 30 c-41 58 -126 81 -211 57z"/>
<path d="M17323 10252 c-76 -27 -117 -60 -155 -121 -31 -53 -33 -60 -33 -151
0 -78 4 -102 22 -135 52 -97 146 -145 285 -145 81 0 167 39 222 100 37 41 38
44 21 57 -24 17 -32 16 -38 -2 -4 -8 -25 -28 -48 -45 -36 -26 -51 -30 -104
-30 -104 0 -163 60 -168 169 l-2 52 180 2 c205 2 195 -3 175 93 -22 104 -101
162 -233 170 -54 4 -85 0 -124 -14z m142 -52 c16 -18 37 -135 27 -145 -3 -3
-43 -5 -89 -5 -94 0 -95 1 -72 85 23 84 88 116 134 65z"/>
<path d="M9933 10253 c-91 -4 -93 -4 -93 -28 0 -20 5 -25 24 -25 29 0 54 -22
61 -53 3 -12 6 -95 7 -184 3 -145 5 -164 24 -189 36 -49 70 -67 133 -72 73 -5
116 8 170 54 l41 36 0 -41 0 -40 103 5 c148 7 167 11 167 34 0 15 -7 20 -28
20 -59 0 -62 13 -62 265 l0 228 -67 -6 c-38 -4 -99 -7 -136 -7 -65 0 -68 -1
-65 -22 2 -16 12 -24 37 -29 18 -4 37 -13 42 -21 5 -7 9 -85 9 -174 0 -154 -1
-161 -22 -181 -52 -47 -101 -55 -139 -24 -24 19 -24 23 -29 238 l-5 218 -40 1
c-22 0 -82 -1 -132 -3z"/>
<path d="M11349 10256 c-3 -3 -44 -6 -92 -7 -84 -2 -87 -2 -87 -25 0 -19 5
-24 24 -24 13 0 34 -8 46 -18 21 -17 21 -24 20 -206 0 -110 -5 -195 -10 -202
-6 -6 -24 -14 -40 -18 -21 -4 -30 -11 -30 -25 0 -18 9 -19 170 -21 l170 -1 0
26 c0 18 -5 25 -20 25 -11 0 -29 9 -40 20 -19 19 -20 33 -20 250 l0 230 -43 0
c-24 0 -46 -2 -48 -4z"/>
<path d="M9166 9297 c-24 -17 -32 -102 -14 -137 18 -34 72 -40 88 -11 8 17 8
21 -4 21 -8 0 -16 -6 -19 -12 -3 -10 -9 -10 -23 -2 -15 9 -19 23 -19 65 l0 54
39 -2 c38 -3 39 -2 21 17 -21 23 -44 25 -69 7z"/>
<path d="M9680 9278 c-33 -55 -19 -133 28 -145 34 -8 54 7 71 54 13 36 12 43
-5 79 -26 54 -65 59 -94 12z m74 -14 c11 -28 6 -80 -8 -100 -32 -42 -69 25
-52 92 7 28 50 34 60 8z"/>
<path d="M10190 9219 c0 -53 4 -89 10 -89 6 0 10 28 11 63 l1 62 14 -32 c8
-18 18 -33 24 -33 5 0 14 15 19 33 8 29 9 26 10 -30 1 -49 4 -63 16 -63 12 0
15 17 15 91 0 79 -2 90 -16 85 -9 -3 -18 -6 -20 -6 -3 0 -9 -12 -15 -27 l-11
-28 -10 26 c-5 15 -18 29 -28 32 -19 5 -20 -1 -20 -84z"/>
<path d="M10717 9303 c-4 -3 -7 -44 -7 -90 0 -67 3 -83 15 -83 10 0 15 11 15
35 0 32 3 35 28 35 46 0 67 23 63 71 -2 28 -93 54 -114 32z m88 -48 c0 -15 -8
-21 -32 -23 -30 -3 -33 -1 -33 23 0 24 3 26 33 23 24 -2 32 -8 32 -23z"/>
<path d="M11285 9300 c-3 -6 -17 -46 -29 -90 -19 -63 -21 -80 -10 -80 7 0 16
11 20 25 5 19 13 25 35 25 24 0 29 -4 29 -25 0 -16 6 -25 16 -25 12 0 15 6 10
23 -3 12 -13 50 -22 84 -15 58 -36 84 -49 63z m27 -70 c4 -25 1 -30 -15 -30
-15 0 -18 5 -13 23 3 12 6 28 6 35 0 24 18 2 22 -28z"/>
<path d="M11773 9303 c-9 -3 -13 -31 -13 -89 0 -68 3 -84 15 -84 12 0 15 14
16 63 l0 62 32 -62 c44 -88 57 -83 57 21 0 100 -18 126 -22 34 l-3 -63 -33 63
c-18 34 -33 62 -35 61 -1 0 -8 -3 -14 -6z"/>
<path d="M12290 9305 c0 -3 9 -23 20 -45 11 -22 20 -59 20 -85 0 -33 4 -45 15
-45 11 0 15 11 15 43 0 26 9 58 24 84 14 24 20 45 15 48 -5 4 -17 -7 -27 -24
-21 -38 -28 -39 -47 -1 -13 26 -35 41 -35 25z"/>
<path d="M12748 9299 c-32 -18 -22 -56 22 -85 43 -29 50 -56 16 -62 -11 -3
-25 4 -32 13 -19 26 -37 14 -19 -13 22 -31 69 -30 90 2 21 31 8 59 -35 78 -18
8 -30 20 -30 32 0 15 5 17 35 12 36 -7 44 1 23 22 -15 15 -47 15 -70 1z"/>
<path d="M13250 9220 l0 -90 60 0 c33 0 60 4 60 10 0 6 -20 10 -45 10 l-45 0
0 74 c0 56 -4 75 -15 80 -13 4 -15 -9 -15 -84z"/>
<path d="M13796 9294 c-21 -21 -30 -58 -23 -100 8 -47 23 -64 57 -64 37 0 60
37 60 95 0 70 -54 110 -94 69z m64 -35 c15 -26 12 -61 -6 -87 -30 -44 -56 -19
-56 54 0 59 38 79 62 33z"/>
<path d="M14313 9283 c-23 -35 -22 -106 2 -133 12 -13 31 -20 56 -20 33 0 40
4 45 25 3 14 3 37 0 51 -5 20 -12 25 -33 22 -32 -4 -44 -28 -14 -28 16 0 21
-6 21 -26 0 -22 -4 -25 -27 -22 -34 4 -49 39 -39 93 7 37 8 37 47 32 28 -4 39
-1 39 8 0 15 -22 25 -56 25 -15 0 -30 -10 -41 -27z"/>
<path d="M14862 9293 c-15 -30 -45 -153 -39 -159 10 -10 27 6 27 27 0 14 7 19
29 19 22 0 30 -6 35 -25 9 -35 30 -32 22 3 -34 146 -52 179 -74 135z m37 -80
c1 -7 -8 -13 -19 -13 -23 0 -24 8 -9 47 l12 28 7 -25 c5 -14 8 -31 9 -37z"/>
<path d="M15356 9303 c-10 -11 -7 -173 4 -173 6 0 10 28 11 63 l0 62 32 -62
c45 -89 57 -83 57 27 0 102 -17 124 -22 28 l-3 -63 -27 57 c-27 57 -40 72 -52
61z"/>
<path d="M15870 9221 c0 -74 3 -91 15 -91 11 0 15 11 15 40 0 38 2 40 30 40
28 0 30 -2 30 -40 0 -22 5 -40 10 -40 6 0 10 37 10 91 0 57 -4 88 -10 84 -5
-3 -10 -22 -10 -41 0 -31 -3 -34 -29 -34 -27 0 -30 3 -33 37 -2 20 -9 38 -15
41 -10 3 -13 -19 -13 -87z"/>
<path d="M16400 9221 l0 -91 55 0 c30 0 55 5 55 10 0 6 -17 10 -38 10 -46 0
-51 3 -44 35 4 21 10 25 38 25 46 0 43 18 -3 22 -30 2 -38 7 -38 23 0 16 8 21
40 25 57 7 49 24 -12 28 l-53 3 0 -90z"/>
<path d="M16932 9298 c-7 -7 -12 -44 -12 -90 0 -63 3 -78 15 -78 10 0 15 11
15 35 0 22 5 35 13 35 7 0 21 -16 31 -35 28 -51 53 -47 26 4 -16 33 -17 40 -5
45 17 6 21 71 5 81 -20 12 -77 14 -88 3z m73 -43 c0 -14 -8 -21 -27 -23 -24
-3 -28 0 -28 23 0 23 4 26 28 23 19 -2 27 -9 27 -23z"/>
<path d="M17455 9301 c-3 -2 -5 -42 -5 -88 l0 -83 55 0 c30 0 55 5 55 10 0 6
-17 10 -38 10 -46 0 -51 3 -44 35 4 21 10 25 38 25 19 0 34 5 34 10 0 6 -15
10 -34 10 -28 0 -34 4 -38 25 -5 24 -3 25 40 25 39 0 43 2 32 15 -12 14 -83
19 -95 6z"/>
<path d="M6968 9053 c7 -3 16 -2 19 1 4 3 -2 6 -13 5 -11 0 -14 -3 -6 -6z"/>
<path d="M7035 9040 c-6 -9 -4 -11 5 -5 10 6 12 1 7 -21 -3 -16 -4 -23 -1 -16
3 6 10 10 15 6 13 -8 11 10 -4 31 -11 14 -16 15 -22 5z"/>
<path d="M7060 8976 c-8 -11 -9 -20 -1 -33 10 -17 10 -17 12 2 1 12 6 4 13
-19 7 -22 15 -36 18 -30 4 5 -1 25 -9 44 -9 19 -15 38 -15 43 3 11 -4 8 -18
-7z"/>
<path d="M7066 8903 c-6 -14 -5 -15 5 -6 7 7 10 15 7 18 -3 3 -9 -2 -12 -12z"/>
<path d="M7137 8815 c3 -16 10 -39 14 -50 l8 -20 0 20 c0 11 -6 34 -14 50
l-14 30 6 -30z"/>
<path d="M7216 8618 c3 -5 10 -6 15 -3 13 9 11 12 -6 12 -8 0 -12 -4 -9 -9z"/>
<path d="M7260 8474 c-19 -13 -43 -31 -54 -40 -10 -8 -61 -48 -115 -87 -53
-39 -98 -74 -101 -77 -3 -4 -13 -9 -22 -13 -10 -3 -18 -13 -18 -21 0 -7 -10
-17 -22 -21 -20 -6 -20 -8 -5 -12 9 -2 17 -11 17 -19 0 -8 5 -14 10 -14 6 0
10 -7 10 -15 0 -12 16 -15 80 -15 64 0 80 -3 80 -15 0 -11 11 -15 40 -15 22 0
40 -4 40 -10 0 -5 18 -10 40 -10 29 0 40 -4 40 -15 0 -11 11 -15 40 -15 29 0
40 -4 40 -15 0 -12 16 -15 80 -15 57 0 80 -4 80 -12 0 -9 4 -8 10 2 6 10 10
11 10 3 0 -7 5 -13 11 -13 5 0 7 5 3 11 -3 6 0 15 7 20 20 12 37 11 19 -1 -13
-9 -13 -12 3 -21 9 -5 17 -16 17 -24 0 -7 6 -15 13 -18 10 -4 10 -7 0 -18 -18
-19 -16 -25 9 -26 18 -2 20 0 8 7 -13 9 -13 11 0 20 21 13 25 13 41 -7 12 -15
12 -16 -6 -9 -14 5 -17 4 -9 -4 6 -6 21 -12 33 -15 21 -4 22 -3 9 13 -8 9 -26
29 -38 45 -13 15 -26 23 -30 17 -3 -5 -12 1 -19 13 -13 20 -13 21 2 8 10 -7
17 -9 17 -3 0 5 -7 16 -16 23 -9 8 -27 30 -39 50 -13 20 -29 42 -37 50 -8 8
-24 31 -37 52 -12 20 -27 37 -32 37 -5 0 -8 3 -7 8 1 4 -19 40 -45 79 -25 40
-61 97 -78 128 -17 30 -34 55 -37 55 -4 -1 -23 -12 -42 -26z m-245 -284 c8 0
15 -4 15 -10 0 -5 -16 -10 -35 -10 -19 0 -35 4 -35 9 0 5 -3 18 -7 28 -7 17
-6 17 20 0 14 -9 33 -17 42 -17z m460 -9 c-9 -8 -36 -10 -30 -2 2 4 11 8 20 8
8 0 13 -3 10 -6z m78 -88 c-7 -3 -10 -10 -7 -17 3 -7 -2 -18 -9 -25 -12 -10
-14 -6 -11 21 1 18 3 34 3 35 1 1 9 -1 18 -4 10 -4 12 -8 6 -10z"/>
<path d="M6880 8190 c0 -5 5 -10 10 -10 6 0 10 5 10 10 0 6 -4 10 -10 10 -5 0
-10 -4 -10 -10z"/>
<path d="M7759 7857 c6 -8 7 -18 3 -22 -4 -5 -1 -5 6 -1 10 6 10 11 1 22 -6 8
-14 14 -16 14 -3 0 0 -6 6 -13z"/>
<path d="M7795 7800 c-3 -6 1 -7 9 -4 18 7 21 14 7 14 -6 0 -13 -4 -16 -10z"/>
<path d="M7830 7786 c0 -2 8 -10 18 -17 15 -13 16 -12 3 4 -13 16 -21 21 -21
13z"/>
<path d="M7870 7746 c0 -2 8 -10 18 -17 15 -13 16 -12 3 4 -13 16 -21 21 -21
13z"/>
<path d="M7910 7706 c0 -2 8 -10 18 -17 15 -13 16 -12 3 4 -13 16 -21 21 -21
13z"/>
</g>
</svg>
