<?xml version="1.0" encoding="UTF-8"?>
<!DOCTYPE svg PUBLIC "-//W3C//DTD SVG 1.1//EN" "http://www.w3.org/Graphics/SVG/1.1/DTD/svg11.dtd">
<svg xmlns="http://www.w3.org/2000/svg" version="1.1" width="512px" height="512px" style="shape-rendering:geometricPrecision; text-rendering:geometricPrecision; image-rendering:optimizeQuality; fill-rule:evenodd; clip-rule:evenodd" xmlns:xlink="http://www.w3.org/1999/xlink">
<g><path style="opacity:0.965" fill="#17183d" d="M 328.5,-0.5 C 338.833,-0.5 349.167,-0.5 359.5,-0.5C 359.5,0.5 359.5,1.5 359.5,2.5C 362.85,2.33499 366.183,2.50166 369.5,3C 370.38,4.35613 370.714,5.85613 370.5,7.5C 372.144,7.28649 373.644,7.61983 375,8.5C 375.667,23.8333 375.667,39.1667 375,54.5C 373.644,55.3802 372.144,55.7135 370.5,55.5C 370.819,60.6463 370.153,65.6463 368.5,70.5C 367.264,71.2458 365.93,71.5792 364.5,71.5C 364.785,73.288 364.452,74.9547 363.5,76.5C 360.067,78.8456 358.567,82.1789 359,86.5C 357.644,87.3802 356.144,87.7135 354.5,87.5C 354.512,91.4459 352.512,93.1126 348.5,92.5C 348.859,94.7659 348.192,96.5993 346.5,98C 336.799,98.7547 327.132,98.588 317.5,97.5C 317.698,94.2297 316.198,92.2297 313,91.5C 311.432,83.5788 311.099,75.5788 312,67.5C 313.356,66.6198 314.856,66.2865 316.5,66.5C 315.5,61.5 317.5,59.5 322.5,60.5C 322.421,57.7294 322.921,55.0627 324,52.5C 325.011,51.6634 326.178,51.33 327.5,51.5C 327.657,50.1266 327.49,48.7932 327,47.5C 323.938,49.6867 320.438,50.6867 316.5,50.5C 316.5,52.1667 316.5,53.8333 316.5,55.5C 314.833,55.5 313.167,55.5 311.5,55.5C 311.5,57.1667 311.5,58.8333 311.5,60.5C 309.833,60.5 308.167,60.5 306.5,60.5C 306.741,63.7935 305.908,66.7935 304,69.5C 302.989,70.3366 301.822,70.67 300.5,70.5C 300.665,73.5184 300.498,76.5184 300,79.5C 298.89,81.0368 297.39,81.7035 295.5,81.5C 295.832,92.1874 295.499,102.854 294.5,113.5C 293.264,114.246 291.93,114.579 290.5,114.5C 290.579,115.93 290.246,117.264 289.5,118.5C 280.853,119.665 272.186,119.832 263.5,119C 262,117.5 260.5,116 259,114.5C 258.505,112.527 258.338,110.527 258.5,108.5C 256.833,108.5 255.167,108.5 253.5,108.5C 252.021,95.1425 252.188,81.8092 254,68.5C 255.11,66.9632 256.61,66.2965 258.5,66.5C 258.334,62.4862 258.501,58.4862 259,54.5C 259.667,52.5 261,51.1667 263,50.5C 263.333,48.8333 263.667,47.1667 264,45.5C 267.955,43.0347 269.789,39.368 269.5,34.5C 271.167,34.5 272.833,34.5 274.5,34.5C 273.425,30.062 275.092,28.062 279.5,28.5C 279.5,26.8333 279.5,25.1667 279.5,23.5C 281.167,23.5 282.833,23.5 284.5,23.5C 284.062,19.0917 286.062,17.4251 290.5,18.5C 290.5,16.8333 290.5,15.1667 290.5,13.5C 293.807,12.9492 297.14,12.6159 300.5,12.5C 300.286,10.8561 300.62,9.35613 301.5,8C 304.817,7.50166 308.15,7.33499 311.5,7.5C 311.5,5.83333 311.5,4.16667 311.5,2.5C 317.167,2.5 322.833,2.5 328.5,2.5C 328.5,1.5 328.5,0.5 328.5,-0.5 Z"/></g>
<g><path style="opacity:0.958" fill="#17183e" d="M 343.5,194.5 C 338.167,194.5 332.833,194.5 327.5,194.5C 327.261,196.467 327.594,198.301 328.5,200C 322.805,200.626 317.138,200.459 311.5,199.5C 311.874,196.028 310.874,193.028 308.5,190.5C 307.675,189.614 306.675,189.281 305.5,189.5C 305.703,187.61 305.037,186.11 303.5,185C 301.26,184.023 298.927,183.523 296.5,183.5C 294.5,183.5 292.5,183.5 290.5,183.5C 290.5,181.833 290.5,180.167 290.5,178.5C 285.5,179.5 283.5,177.5 284.5,172.5C 281.167,172.5 277.833,172.5 274.5,172.5C 274.5,170.833 274.5,169.167 274.5,167.5C 261.833,167.5 249.167,167.5 236.5,167.5C 236.5,169.167 236.5,170.833 236.5,172.5C 233.167,172.5 229.833,172.5 226.5,172.5C 227.5,177.5 225.5,179.5 220.5,178.5C 220.5,180.167 220.5,181.833 220.5,183.5C 218.833,183.5 217.167,183.5 215.5,183.5C 215.5,186.833 215.5,190.167 215.5,193.5C 214.07,193.421 212.736,193.754 211.5,194.5C 210.723,200.325 210.056,206.158 209.5,212C 208.911,214.633 207.244,215.8 204.5,215.5C 204.5,227.833 204.5,240.167 204.5,252.5C 202.833,252.5 201.167,252.5 199.5,252.5C 199.666,257.511 199.499,262.511 199,267.5C 197.644,268.38 196.144,268.714 194.5,268.5C 194.577,272.215 194.244,275.881 193.5,279.5C 191.833,279.5 190.167,279.5 188.5,279.5C 188.664,282.187 188.497,284.854 188,287.5C 186.89,289.037 185.39,289.703 183.5,289.5C 184.575,293.938 182.908,295.938 178.5,295.5C 178.938,299.908 176.938,301.575 172.5,300.5C 173.517,304.789 171.85,307.122 167.5,307.5C 167.032,309.134 166.032,310.3 164.5,311C 158.833,311.667 153.167,311.667 147.5,311C 146.62,309.644 146.286,308.144 146.5,306.5C 141.5,307.5 139.5,305.5 140.5,300.5C 138.833,300.5 137.167,300.5 135.5,300.5C 135.334,292.16 135.5,283.827 136,275.5C 137.356,274.62 138.856,274.286 140.5,274.5C 140.167,270.167 142.167,268.167 146.5,268.5C 146.5,266.833 146.5,265.167 146.5,263.5C 148.167,263.5 149.833,263.5 151.5,263.5C 151.18,260.102 151.513,256.768 152.5,253.5C 153.736,252.754 155.07,252.421 156.5,252.5C 156.335,249.482 156.502,246.482 157,243.5C 158.699,242.594 160.533,242.261 162.5,242.5C 162.334,233.494 162.5,224.494 163,215.5C 164,213.833 165.333,212.5 167,211.5C 167.333,201.833 167.667,192.167 168,182.5C 168.112,179.553 169.612,178.22 172.5,178.5C 172.423,174.785 172.756,171.119 173.5,167.5C 175.167,167.5 176.833,167.5 178.5,167.5C 178.335,164.482 178.502,161.482 179,158.5C 180.356,157.62 181.856,157.286 183.5,157.5C 182.425,153.062 184.092,151.062 188.5,151.5C 188.062,147.092 190.062,145.425 194.5,146.5C 194.5,144.833 194.5,143.167 194.5,141.5C 195.93,141.579 197.264,141.246 198.5,140.5C 201.157,135.971 205.157,134.305 210.5,135.5C 210.5,133.833 210.5,132.167 210.5,130.5C 214.167,130.5 217.833,130.5 221.5,130.5C 220.874,126.625 222.541,124.791 226.5,125C 247.52,124.225 268.52,124.391 289.5,125.5C 289.5,127.167 289.5,128.833 289.5,130.5C 293.167,130.5 296.833,130.5 300.5,130.5C 300.5,132.167 300.5,133.833 300.5,135.5C 303.579,135.26 306.579,135.593 309.5,136.5C 310.651,139.158 312.651,140.825 315.5,141.5C 316.452,143.045 316.785,144.712 316.5,146.5C 320.938,145.425 322.938,147.092 322.5,151.5C 326.908,151.062 328.575,153.062 327.5,157.5C 329.144,157.286 330.644,157.62 332,158.5C 332.498,161.482 332.665,164.482 332.5,167.5C 334.288,167.215 335.955,167.548 337.5,168.5C 338.417,171.758 338.751,175.091 338.5,178.5C 340.451,178.227 341.951,178.893 343,180.5C 343.499,185.155 343.666,189.821 343.5,194.5 Z"/></g>
<g><path style="opacity:0.991" fill="#f38eb0" d="M 290.5,183.5 C 292.5,183.5 294.5,183.5 296.5,183.5C 296.5,184.167 296.833,184.5 297.5,184.5C 298.145,185.812 299.145,186.812 300.5,187.5C 301.367,190.935 302.534,194.268 304,197.5C 307.904,201.079 312.071,204.245 316.5,207C 319.5,207.667 322.5,207.667 325.5,207C 328.756,204.223 332.089,201.723 335.5,199.5C 337.557,197.144 340.224,196.144 343.5,196.5C 343.5,197.5 343.5,198.5 343.5,199.5C 345.167,199.5 346.833,199.5 348.5,199.5C 348.5,201.167 348.5,202.833 348.5,204.5C 353.5,203.5 355.5,205.5 354.5,210.5C 356.167,210.5 357.833,210.5 359.5,210.5C 359.5,213.833 359.5,217.167 359.5,220.5C 361.144,220.286 362.644,220.62 364,221.5C 364.499,225.821 364.666,230.154 364.5,234.5C 364.351,235.552 364.517,236.552 365,237.5C 365.986,236.829 367.153,236.829 368.5,237.5C 369.117,237.611 369.617,237.944 370,238.5C 370.5,250.829 370.667,263.162 370.5,275.5C 370.768,277.099 370.434,278.432 369.5,279.5C 363.769,279.939 358.103,280.773 352.5,282C 342.995,292.629 343.328,302.962 353.5,313C 355.405,314.421 357.405,315.588 359.5,316.5C 361.777,320.948 364.277,325.282 367,329.5C 368.154,330.743 369.488,331.743 371,332.5C 371.333,334.833 371.667,337.167 372,339.5C 372.908,341.439 374.408,342.439 376.5,342.5C 376.281,348.339 377.781,353.673 381,358.5C 381.499,364.157 381.666,369.824 381.5,375.5C 381.5,376.167 381.5,376.833 381.5,377.5C 380.15,378.483 379.15,379.816 378.5,381.5C 377.676,384.785 377.176,388.118 377,391.5C 375.559,392.87 373.892,393.87 372,394.5C 371.178,397.117 370.678,399.784 370.5,402.5C 368.856,402.286 367.356,402.62 366,403.5C 365.505,405.473 365.338,407.473 365.5,409.5C 362.612,409.22 361.112,410.553 361,413.5C 357.564,414.1 355.731,416.1 355.5,419.5C 352.532,419.626 350.532,421.126 349.5,424C 345.749,424.582 344.082,426.749 344.5,430.5C 340.215,433.114 335.548,435.28 330.5,437C 329.833,438 329.167,439 328.5,440C 322.718,439.519 317.718,441.186 313.5,445C 309.833,445.333 306.167,445.667 302.5,446C 300.137,446.589 299.137,448.089 299.5,450.5C 291.135,450.447 282.802,450.947 274.5,452C 272.382,452.26 270.716,453.26 269.5,455C 260.167,455.667 250.833,455.667 241.5,455C 239.365,453.619 237.032,452.619 234.5,452C 227.167,451.667 219.833,451.333 212.5,451C 207.842,448.28 202.842,446.447 197.5,445.5C 194.308,441.58 190.141,439.58 185,439.5C 181.122,437.132 178.622,433.798 177.5,429.5C 174.214,428.793 170.881,428.46 167.5,428.5C 167.67,427.178 167.337,426.011 166.5,425C 164.5,424.667 162.5,424.333 160.5,424C 157.628,420.302 154.628,416.802 151.5,413.5C 151.5,411.5 151.5,409.5 151.5,407.5C 151.334,397.161 151.5,386.828 152,376.5C 153.356,375.62 154.856,375.286 156.5,375.5C 156.335,372.482 156.502,369.482 157,366.5C 158.444,364.845 160.278,364.178 162.5,364.5C 162.5,361.167 162.5,357.833 162.5,354.5C 164.167,354.5 165.833,354.5 167.5,354.5C 166.425,350.062 168.092,348.062 172.5,348.5C 172.062,344.092 174.062,342.425 178.5,343.5C 178.5,341.833 178.5,340.167 178.5,338.5C 180.167,338.5 181.833,338.5 183.5,338.5C 182.425,334.062 184.092,332.062 188.5,332.5C 188.062,328.092 190.062,326.425 194.5,327.5C 194.5,325.833 194.5,324.167 194.5,322.5C 196.167,322.5 197.833,322.5 199.5,322.5C 199.46,319.119 199.793,315.786 200.5,312.5C 201.822,312.67 202.989,312.337 204,311.5C 204.003,307.118 206.169,305.451 210.5,306.5C 210.335,303.15 210.502,299.817 211,296.5C 212.356,295.62 213.856,295.286 215.5,295.5C 215.334,291.154 215.501,286.821 216,282.5C 216.7,280.968 217.866,279.968 219.5,279.5C 220.332,268.181 220.832,256.848 221,245.5C 221.232,244.263 221.732,243.263 222.5,242.5C 224.167,241.5 225.5,240.167 226.5,238.5C 226.5,232.833 226.5,227.167 226.5,221.5C 227.93,221.579 229.264,221.246 230.5,220.5C 231.248,217.503 231.915,214.503 232.5,211.5C 233.689,210.571 235.022,210.238 236.5,210.5C 236.167,206.167 238.167,204.167 242.5,204.5C 242.5,202.833 242.5,201.167 242.5,199.5C 244.167,199.5 245.833,199.5 247.5,199.5C 247.5,197.833 247.5,196.167 247.5,194.5C 249.5,194.5 251.5,194.5 253.5,194.5C 253.297,192.61 253.963,191.11 255.5,190C 258.101,189.08 260.768,188.413 263.5,188C 264.337,186.989 264.67,185.822 264.5,184.5C 273.126,183.589 281.792,183.255 290.5,183.5 Z"/></g>
<g><path style="opacity:1" fill="#412e54" d="M 296.5,183.5 C 298.927,183.523 301.26,184.023 303.5,185C 305.037,186.11 305.703,187.61 305.5,189.5C 306.675,189.281 307.675,189.614 308.5,190.5C 310.874,193.028 311.874,196.028 311.5,199.5C 317.138,200.459 322.805,200.626 328.5,200C 327.594,198.301 327.261,196.467 327.5,194.5C 332.833,194.5 338.167,194.5 343.5,194.5C 343.5,195.167 343.5,195.833 343.5,196.5C 340.224,196.144 337.557,197.144 335.5,199.5C 331.422,201.057 327.422,202.89 323.5,205C 321.167,205.667 318.833,205.667 316.5,205C 314.362,202.629 311.862,200.796 309,199.5C 308.482,196.977 307.148,194.977 305,193.5C 305.102,188.307 302.602,185.307 297.5,184.5C 296.833,184.5 296.5,184.167 296.5,183.5 Z"/></g>
<g><path style="opacity:1" fill="#8f587c" d="M 297.5,184.5 C 302.602,185.307 305.102,188.307 305,193.5C 307.148,194.977 308.482,196.977 309,199.5C 311.862,200.796 314.362,202.629 316.5,205C 318.833,205.667 321.167,205.667 323.5,205C 327.422,202.89 331.422,201.057 335.5,199.5C 332.089,201.723 328.756,204.223 325.5,207C 322.5,207.667 319.5,207.667 316.5,207C 312.071,204.245 307.904,201.079 304,197.5C 302.534,194.268 301.367,190.935 300.5,187.5C 299.145,186.812 298.145,185.812 297.5,184.5 Z"/></g>
<g><path style="opacity:0.004" fill="#fefffe" d="M 364.5,234.5 C 366.404,234.738 367.738,235.738 368.5,237.5C 367.153,236.829 365.986,236.829 365,237.5C 364.517,236.552 364.351,235.552 364.5,234.5 Z"/></g>
<g><path style="opacity:0.004" fill="#fe0000" d="M 226.5,238.5 C 225.5,240.167 224.167,241.5 222.5,242.5C 222.833,240.167 224.167,238.833 226.5,238.5 Z"/></g>
<g><path style="opacity:1" fill="#a16286" d="M 369.5,279.5 C 369.5,279.833 369.5,280.167 369.5,280.5C 364.447,281.249 359.447,282.416 354.5,284C 352.457,287.253 350.29,290.42 348,293.5C 347.333,296.167 347.333,298.833 348,301.5C 349.889,303.483 351.222,305.816 352,308.5C 354.705,311.036 357.205,313.703 359.5,316.5C 357.405,315.588 355.405,314.421 353.5,313C 343.328,302.962 342.995,292.629 352.5,282C 358.103,280.773 363.769,279.939 369.5,279.5 Z"/></g>
<g><path style="opacity:0.985" fill="#19193f" d="M 370.5,275.5 C 371.962,276.458 373.295,277.624 374.5,279C 376.473,279.495 378.473,279.662 380.5,279.5C 380.5,281.167 380.5,282.833 380.5,284.5C 384.833,284.167 386.833,286.167 386.5,290.5C 388.167,290.5 389.833,290.5 391.5,290.5C 391.5,292.167 391.5,293.833 391.5,295.5C 393.167,295.5 394.833,295.5 396.5,295.5C 396.5,297.5 396.5,299.5 396.5,301.5C 398.167,301.5 399.833,301.5 401.5,301.5C 401.833,304.833 402.167,308.167 402.5,311.5C 404.167,311.5 405.833,311.5 407.5,311.5C 406.514,316.158 407.848,319.824 411.5,322.5C 412.167,325.833 412.833,329.167 413.5,332.5C 414.736,333.246 416.07,333.579 417.5,333.5C 418.207,336.786 418.54,340.119 418.5,343.5C 414.777,342.35 411.61,343.35 409,346.5C 407.675,353.826 408.841,360.659 412.5,367C 411.317,370.175 410.15,373.342 409,376.5C 408.501,381.823 408.334,387.156 408.5,392.5C 409.423,396.849 408.09,400.183 404.5,402.5C 403.394,406.135 402.394,409.802 401.5,413.5C 398.834,415.397 397.334,418.064 397,421.5C 394.82,423.863 393.153,426.53 392,429.5C 389.073,432.707 385.739,435.373 382,437.5C 381.781,438.938 381.281,440.271 380.5,441.5C 377.76,444.565 375.093,447.565 372.5,450.5C 368.867,451.142 366.534,453.142 365.5,456.5C 363.692,456.491 362.025,456.991 360.5,458C 356.85,461.877 352.684,465.044 348,467.5C 337.775,471.417 327.608,475.083 317.5,478.5C 312.435,477.6 308.435,479.1 305.5,483C 297.5,483.333 289.5,483.667 281.5,484C 277.281,484.173 273.281,485.173 269.5,487C 264.167,487.167 258.833,487.333 253.5,487.5C 238.994,485.241 224.327,483.741 209.5,483C 206.267,481.615 202.934,480.448 199.5,479.5C 196.256,480.618 192.923,481.451 189.5,482C 188.587,483.414 188.587,484.914 189.5,486.5C 185.139,483.345 180.139,481.678 174.5,481.5C 173.05,480.15 172.383,478.484 172.5,476.5C 169.167,476.5 165.833,476.5 162.5,476.5C 162.5,474.833 162.5,473.167 162.5,471.5C 159.15,471.665 155.817,471.498 152.5,471C 151.62,469.644 151.286,468.144 151.5,466.5C 149.585,466.784 147.919,466.451 146.5,465.5C 145.833,462.833 144.167,461.167 141.5,460.5C 137.062,461.575 135.062,459.908 135.5,455.5C 133.833,455.5 132.167,455.5 130.5,455.5C 130.5,453.833 130.5,452.167 130.5,450.5C 125.5,451.5 123.5,449.5 124.5,444.5C 122.833,444.5 121.167,444.5 119.5,444.5C 119.5,442.833 119.5,441.167 119.5,439.5C 117.833,439.5 116.167,439.5 114.5,439.5C 115.113,435.488 113.446,433.488 109.5,433.5C 108.793,430.214 108.46,426.881 108.5,423.5C 106.833,423.5 105.167,423.5 103.5,423.5C 104.303,419.831 103.136,417.164 100,415.5C 98.7101,411.27 98.2101,406.936 98.5,402.5C 96.0072,402.671 94.1739,401.671 93,399.5C 92.3333,381.167 92.3333,362.833 93,344.5C 94.6995,343.594 96.5328,343.261 98.5,343.5C 98.5,341.833 98.5,340.167 98.5,338.5C 108.506,338.334 118.506,338.5 128.5,339C 129.971,342.321 130.637,345.821 130.5,349.5C 132.144,349.286 133.644,349.62 135,350.5C 135.333,362.833 135.667,375.167 136,387.5C 139.878,389.711 141.378,393.045 140.5,397.5C 142.144,397.286 143.644,397.62 145,398.5C 145.953,401.432 146.453,404.432 146.5,407.5C 148.167,407.5 149.833,407.5 151.5,407.5C 151.5,409.5 151.5,411.5 151.5,413.5C 151.5,414.167 151.5,414.833 151.5,415.5C 151.789,419.106 151.456,422.606 150.5,426C 152.633,431.559 156.633,434.393 162.5,434.5C 162.5,436.167 162.5,437.833 162.5,439.5C 166.555,439.176 170.555,439.509 174.5,440.5C 175.952,443.295 178.285,444.962 181.5,445.5C 181.977,446.478 182.643,447.311 183.5,448C 187.06,449.237 190.727,449.737 194.5,449.5C 195.833,449.5 197.167,449.5 198.5,449.5C 198.856,450.87 199.69,451.87 201,452.5C 208.84,453.666 216.34,455.833 223.5,459C 244.167,459.667 264.833,459.667 285.5,459C 289.29,458.77 292.624,457.437 295.5,455C 299.558,454.66 303.558,453.993 307.5,453C 312.191,449.434 317.524,447.434 323.5,447C 325.141,444.837 327.141,443.337 329.5,442.5C 336.502,439.325 343.168,435.492 349.5,431C 358.005,423.46 366.171,415.627 374,407.5C 374.429,404.024 376.096,401.357 379,399.5C 380.149,396.607 380.649,393.607 380.5,390.5C 383.649,389.84 385.149,387.84 385,384.5C 385.667,372.5 385.667,360.5 385,348.5C 384.363,346.697 383.197,345.364 381.5,344.5C 380.676,341.215 380.176,337.882 380,334.5C 378.667,333.833 377.333,333.167 376,332.5C 374.787,328.131 372.287,324.797 368.5,322.5C 366.167,320.5 363.833,318.5 361.5,316.5C 358.649,312.589 355.982,308.589 353.5,304.5C 352.489,299.191 352.322,293.857 353,288.5C 353.465,287.069 354.299,285.903 355.5,285C 360.155,284.501 364.821,284.334 369.5,284.5C 369.5,283.167 369.5,281.833 369.5,280.5C 369.5,280.167 369.5,279.833 369.5,279.5C 370.434,278.432 370.768,277.099 370.5,275.5 Z"/></g>
<g><path style="opacity:1" fill="#573a5f" d="M 369.5,280.5 C 369.5,281.833 369.5,283.167 369.5,284.5C 364.821,284.334 360.155,284.501 355.5,285C 354.299,285.903 353.465,287.069 353,288.5C 352.322,293.857 352.489,299.191 353.5,304.5C 355.982,308.589 358.649,312.589 361.5,316.5C 360.833,316.5 360.167,316.5 359.5,316.5C 357.205,313.703 354.705,311.036 352,308.5C 351.222,305.816 349.889,303.483 348,301.5C 347.333,298.833 347.333,296.167 348,293.5C 350.29,290.42 352.457,287.253 354.5,284C 359.447,282.416 364.447,281.249 369.5,280.5 Z"/></g>
<g><path style="opacity:1" fill="#453156" d="M 368.5,322.5 C 372.287,324.797 374.787,328.131 376,332.5C 377.333,333.167 378.667,333.833 380,334.5C 380.176,337.882 380.676,341.215 381.5,344.5C 383.197,345.364 384.363,346.697 385,348.5C 385.667,360.5 385.667,372.5 385,384.5C 385.149,387.84 383.649,389.84 380.5,390.5C 382.821,387.638 383.987,384.305 384,380.5C 384.667,371.5 384.667,362.5 384,353.5C 381.271,348.406 378.938,343.073 377,337.5C 376.292,336.619 375.458,335.953 374.5,335.5C 372.5,331.167 370.5,326.833 368.5,322.5 Z"/></g>
<g><path style="opacity:1" fill="#b36c8f" d="M 359.5,316.5 C 360.167,316.5 360.833,316.5 361.5,316.5C 363.833,318.5 366.167,320.5 368.5,322.5C 370.5,326.833 372.5,331.167 374.5,335.5C 377.095,342.115 379.595,348.782 382,355.5C 382.821,362.346 382.654,369.013 381.5,375.5C 381.666,369.824 381.499,364.157 381,358.5C 377.781,353.673 376.281,348.339 376.5,342.5C 374.408,342.439 372.908,341.439 372,339.5C 371.667,337.167 371.333,334.833 371,332.5C 369.488,331.743 368.154,330.743 367,329.5C 364.277,325.282 361.777,320.948 359.5,316.5 Z"/></g>
<g><path style="opacity:0.959" fill="#f28eb0" d="M 418.5,345.5 C 422.39,347.104 424.056,350.104 423.5,354.5C 425.167,354.5 426.833,354.5 428.5,354.5C 428.044,358.119 429.544,360.452 433,361.5C 433.645,364.559 434.478,367.559 435.5,370.5C 437.432,371.145 438.599,372.479 439,374.5C 439.17,380.196 439.67,385.862 440.5,391.5C 441.748,392.04 442.915,392.707 444,393.5C 444.667,402.5 444.667,411.5 444,420.5C 442.89,422.037 441.39,422.703 439.5,422.5C 439.5,428.167 439.5,433.833 439.5,439.5C 437.61,439.297 436.11,439.963 435,441.5C 435.776,446.666 433.943,450.333 429.5,452.5C 428.52,455.086 428.187,457.753 428.5,460.5C 426.833,460.5 425.167,460.5 423.5,460.5C 424.575,464.938 422.908,466.938 418.5,466.5C 418.938,470.908 416.938,472.575 412.5,471.5C 412.5,473.167 412.5,474.833 412.5,476.5C 410.833,476.5 409.167,476.5 407.5,476.5C 408.575,480.938 406.908,482.938 402.5,482.5C 402.512,486.446 400.512,488.113 396.5,487.5C 396.703,489.39 396.037,490.89 394.5,492C 391.854,492.497 389.187,492.664 386.5,492.5C 386.617,494.484 385.95,496.15 384.5,497.5C 381.579,498.407 378.579,498.74 375.5,498.5C 375.714,500.144 375.38,501.644 374.5,503C 371.118,503.176 367.785,503.676 364.5,504.5C 364.032,506.134 363.032,507.3 361.5,508C 355.509,508.499 349.509,508.666 343.5,508.5C 343.5,509.5 343.5,510.5 343.5,511.5C 311.5,511.5 279.5,511.5 247.5,511.5C 247.5,510.5 247.5,509.5 247.5,508.5C 242.167,508.5 236.833,508.5 231.5,508.5C 231.52,506.857 230.853,505.524 229.5,504.5C 225.204,503.672 220.871,503.172 216.5,503C 215.62,501.644 215.286,500.144 215.5,498.5C 212.14,498.384 208.807,498.051 205.5,497.5C 205.657,496.127 205.49,494.793 205,493.5C 203.052,492.891 201.218,492.224 199.5,491.5C 198.833,490.167 198.167,488.833 197.5,487.5C 198.167,487.5 198.833,487.5 199.5,487.5C 203.78,486.46 208.113,486.294 212.5,487C 219.143,489.811 226.143,491.145 233.5,491C 250.833,491.667 268.167,491.667 285.5,491C 294.087,487.435 303.087,485.435 312.5,485C 317.004,481.887 322.004,480.053 327.5,479.5C 328.5,478.667 329.5,477.833 330.5,477C 334.167,476 337.833,475 341.5,474C 344.098,471.041 347.432,469.707 351.5,470C 353.155,468.556 353.822,466.722 353.5,464.5C 355.564,464.313 357.564,463.813 359.5,463C 363.225,458.474 367.892,455.474 373.5,454C 381.561,447.273 389.061,439.773 396,431.5C 398.953,427.7 401.619,423.7 404,419.5C 404.84,414.271 407.174,409.938 411,406.5C 411.641,401.613 412.808,396.947 414.5,392.5C 415.927,390.852 416.76,388.852 417,386.5C 417.5,374.838 417.667,363.171 417.5,351.5C 417.5,350.833 417.5,350.167 417.5,349.5C 418.434,348.432 418.768,347.099 418.5,345.5 Z"/></g>
<g><path style="opacity:1" fill="#33274c" d="M 418.5,343.5 C 418.5,344.167 418.5,344.833 418.5,345.5C 418.768,347.099 418.434,348.432 417.5,349.5C 416.542,349.953 415.708,350.619 415,351.5C 414.83,361.675 414.33,371.675 413.5,381.5C 410.314,384.484 408.647,388.151 408.5,392.5C 408.334,387.156 408.501,381.823 409,376.5C 410.15,373.342 411.317,370.175 412.5,367C 408.841,360.659 407.675,353.826 409,346.5C 411.61,343.35 414.777,342.35 418.5,343.5 Z"/></g>
<g><path style="opacity:1" fill="#b76e91" d="M 417.5,351.5 C 417.667,363.171 417.5,374.838 417,386.5C 416.76,388.852 415.927,390.852 414.5,392.5C 415.182,379.848 415.682,367.181 416,354.5C 416.232,353.263 416.732,352.263 417.5,351.5 Z"/></g>
<g><path style="opacity:1" fill="#734a6e" d="M 374.5,335.5 C 375.458,335.953 376.292,336.619 377,337.5C 378.938,343.073 381.271,348.406 384,353.5C 384.667,362.5 384.667,371.5 384,380.5C 383.987,384.305 382.821,387.638 380.5,390.5C 380.649,393.607 380.149,396.607 379,399.5C 376.096,401.357 374.429,404.024 374,407.5C 366.171,415.627 358.005,423.46 349.5,431C 343.168,435.492 336.502,439.325 329.5,442.5C 331.646,438.605 334.979,436.439 339.5,436C 340.257,434.488 341.257,433.154 342.5,432C 345.412,430.76 348.079,429.094 350.5,427C 354.347,421.653 359.014,417.153 364.5,413.5C 368.703,406.931 373.037,400.431 377.5,394C 378.763,388.448 380.097,382.948 381.5,377.5C 381.5,376.833 381.5,376.167 381.5,375.5C 382.654,369.013 382.821,362.346 382,355.5C 379.595,348.782 377.095,342.115 374.5,335.5 Z"/></g>
<g><path style="opacity:1" fill="#5b3c61" d="M 413.5,381.5 C 411.378,387.99 409.878,394.657 409,401.5C 405.147,406.14 402.814,411.474 402,417.5C 398.19,421.304 395.19,425.637 393,430.5C 387.384,436.238 381.884,442.071 376.5,448C 375.016,448.662 373.683,449.496 372.5,450.5C 375.093,447.565 377.76,444.565 380.5,441.5C 381.281,440.271 381.781,438.938 382,437.5C 385.739,435.373 389.073,432.707 392,429.5C 393.153,426.53 394.82,423.863 397,421.5C 397.334,418.064 398.834,415.397 401.5,413.5C 402.394,409.802 403.394,406.135 404.5,402.5C 408.09,400.183 409.423,396.849 408.5,392.5C 408.647,388.151 410.314,384.484 413.5,381.5 Z"/></g>
<g><path style="opacity:0.992" fill="#31264b" d="M 151.5,415.5 C 152.776,417.562 153.61,419.896 154,422.5C 154.708,423.381 155.542,424.047 156.5,424.5C 158.748,427.916 161.748,430.416 165.5,432C 166.956,433.745 168.289,435.578 169.5,437.5C 173.73,438.459 177.73,439.792 181.5,441.5C 186.352,443.444 190.685,446.11 194.5,449.5C 190.727,449.737 187.06,449.237 183.5,448C 182.643,447.311 181.977,446.478 181.5,445.5C 178.285,444.962 175.952,443.295 174.5,440.5C 170.555,439.509 166.555,439.176 162.5,439.5C 162.5,437.833 162.5,436.167 162.5,434.5C 156.633,434.393 152.633,431.559 150.5,426C 151.456,422.606 151.789,419.106 151.5,415.5 Z"/></g>
<g><path style="opacity:1" fill="#cb799c" d="M 381.5,377.5 C 380.097,382.948 378.763,388.448 377.5,394C 373.037,400.431 368.703,406.931 364.5,413.5C 359.014,417.153 354.347,421.653 350.5,427C 348.079,429.094 345.412,430.76 342.5,432C 341.257,433.154 340.257,434.488 339.5,436C 334.979,436.439 331.646,438.605 329.5,442.5C 323.142,445.163 316.475,446.996 309.5,448C 308.449,449.385 307.116,450.385 305.5,451C 300.545,452.078 295.545,452.911 290.5,453.5C 288.579,453.86 286.912,454.694 285.5,456C 269.189,457.205 252.856,457.705 236.5,457.5C 228.58,454.395 220.247,452.562 211.5,452C 206.436,449.489 201.103,447.822 195.5,447C 191.307,443.729 186.64,441.895 181.5,441.5C 172.898,436.232 164.565,430.565 156.5,424.5C 155.542,424.047 154.708,423.381 154,422.5C 153.61,419.896 152.776,417.562 151.5,415.5C 151.5,414.833 151.5,414.167 151.5,413.5C 154.628,416.802 157.628,420.302 160.5,424C 162.5,424.333 164.5,424.667 166.5,425C 167.337,426.011 167.67,427.178 167.5,428.5C 170.881,428.46 174.214,428.793 177.5,429.5C 178.622,433.798 181.122,437.132 185,439.5C 190.141,439.58 194.308,441.58 197.5,445.5C 202.842,446.447 207.842,448.28 212.5,451C 219.833,451.333 227.167,451.667 234.5,452C 237.032,452.619 239.365,453.619 241.5,455C 250.833,455.667 260.167,455.667 269.5,455C 270.716,453.26 272.382,452.26 274.5,452C 282.802,450.947 291.135,450.447 299.5,450.5C 299.137,448.089 300.137,446.589 302.5,446C 306.167,445.667 309.833,445.333 313.5,445C 317.718,441.186 322.718,439.519 328.5,440C 329.167,439 329.833,438 330.5,437C 335.548,435.28 340.215,433.114 344.5,430.5C 344.082,426.749 345.749,424.582 349.5,424C 350.532,421.126 352.532,419.626 355.5,419.5C 355.731,416.1 357.564,414.1 361,413.5C 361.112,410.553 362.612,409.22 365.5,409.5C 365.338,407.473 365.505,405.473 366,403.5C 367.356,402.62 368.856,402.286 370.5,402.5C 370.678,399.784 371.178,397.117 372,394.5C 373.892,393.87 375.559,392.87 377,391.5C 377.176,388.118 377.676,384.785 378.5,381.5C 379.15,379.816 380.15,378.483 381.5,377.5 Z"/></g>
<g><path style="opacity:1" fill="#7b4e72" d="M 156.5,424.5 C 164.565,430.565 172.898,436.232 181.5,441.5C 177.73,439.792 173.73,438.459 169.5,437.5C 168.289,435.578 166.956,433.745 165.5,432C 161.748,430.416 158.748,427.916 156.5,424.5 Z"/></g>
<g><path style="opacity:1" fill="#895579" d="M 181.5,441.5 C 186.64,441.895 191.307,443.729 195.5,447C 201.103,447.822 206.436,449.489 211.5,452C 220.247,452.562 228.58,454.395 236.5,457.5C 226.492,455.997 216.492,454.497 206.5,453C 203.936,451.604 201.269,450.437 198.5,449.5C 197.167,449.5 195.833,449.5 194.5,449.5C 190.685,446.11 186.352,443.444 181.5,441.5 Z"/></g>
<g><path style="opacity:1" fill="#603f64" d="M 329.5,442.5 C 327.141,443.337 325.141,444.837 323.5,447C 317.524,447.434 312.191,449.434 307.5,453C 303.558,453.993 299.558,454.66 295.5,455C 292.624,457.437 289.29,458.77 285.5,459C 264.833,459.667 244.167,459.667 223.5,459C 216.34,455.833 208.84,453.666 201,452.5C 199.69,451.87 198.856,450.87 198.5,449.5C 201.269,450.437 203.936,451.604 206.5,453C 216.492,454.497 226.492,455.997 236.5,457.5C 252.856,457.705 269.189,457.205 285.5,456C 286.912,454.694 288.579,453.86 290.5,453.5C 295.545,452.911 300.545,452.078 305.5,451C 307.116,450.385 308.449,449.385 309.5,448C 316.475,446.996 323.142,445.163 329.5,442.5 Z"/></g>
<g><path style="opacity:0.005" fill="#000000" d="M 141.5,460.5 C 144.167,461.167 145.833,462.833 146.5,465.5C 143.167,465.5 141.5,463.833 141.5,460.5 Z"/></g>
<g><path style="opacity:1" fill="#4f365b" d="M 317.5,478.5 C 309.798,483.809 301.131,485.976 291.5,485C 284.673,487.166 277.673,488.5 270.5,489C 258.167,489.667 245.833,489.667 233.5,489C 222.667,486.104 211.667,485.104 200.5,486C 199.944,486.383 199.611,486.883 199.5,487.5C 198.833,487.5 198.167,487.5 197.5,487.5C 196.833,487.5 196.167,487.5 195.5,487.5C 193.265,487.795 191.265,487.461 189.5,486.5C 188.587,484.914 188.587,483.414 189.5,482C 192.923,481.451 196.256,480.618 199.5,479.5C 202.934,480.448 206.267,481.615 209.5,483C 224.327,483.741 238.994,485.241 253.5,487.5C 258.833,487.333 264.167,487.167 269.5,487C 273.281,485.173 277.281,484.173 281.5,484C 289.5,483.667 297.5,483.333 305.5,483C 308.435,479.1 312.435,477.6 317.5,478.5 Z"/></g>
<g><path style="opacity:0.004" fill="#fe0000" d="M 195.5,487.5 C 196.167,487.5 196.833,487.5 197.5,487.5C 198.167,488.833 198.833,490.167 199.5,491.5C 197.5,490.833 196.167,489.5 195.5,487.5 Z"/></g>
<g><path style="opacity:1" fill="#955c80" d="M 417.5,349.5 C 417.5,350.167 417.5,350.833 417.5,351.5C 416.732,352.263 416.232,353.263 416,354.5C 415.682,367.181 415.182,379.848 414.5,392.5C 412.808,396.947 411.641,401.613 411,406.5C 407.174,409.938 404.84,414.271 404,419.5C 401.619,423.7 398.953,427.7 396,431.5C 389.061,439.773 381.561,447.273 373.5,454C 367.892,455.474 363.225,458.474 359.5,463C 357.564,463.813 355.564,464.313 353.5,464.5C 353.822,466.722 353.155,468.556 351.5,470C 347.432,469.707 344.098,471.041 341.5,474C 337.833,475 334.167,476 330.5,477C 329.5,477.833 328.5,478.667 327.5,479.5C 322.004,480.053 317.004,481.887 312.5,485C 303.087,485.435 294.087,487.435 285.5,491C 268.167,491.667 250.833,491.667 233.5,491C 226.143,491.145 219.143,489.811 212.5,487C 208.113,486.294 203.78,486.46 199.5,487.5C 199.611,486.883 199.944,486.383 200.5,486C 211.667,485.104 222.667,486.104 233.5,489C 245.833,489.667 258.167,489.667 270.5,489C 277.673,488.5 284.673,487.166 291.5,485C 301.131,485.976 309.798,483.809 317.5,478.5C 327.608,475.083 337.775,471.417 348,467.5C 352.684,465.044 356.85,461.877 360.5,458C 362.025,456.991 363.692,456.491 365.5,456.5C 366.534,453.142 368.867,451.142 372.5,450.5C 373.683,449.496 375.016,448.662 376.5,448C 381.884,442.071 387.384,436.238 393,430.5C 395.19,425.637 398.19,421.304 402,417.5C 402.814,411.474 405.147,406.14 409,401.5C 409.878,394.657 411.378,387.99 413.5,381.5C 414.33,371.675 414.83,361.675 415,351.5C 415.708,350.619 416.542,349.953 417.5,349.5 Z"/></g>
</svg>
